<svg width="70" height="70" viewBox="0 0 70 70" fill="none" xmlns="http://www.w3.org/2000/svg">
<path d="M68.3472 38.9084C68.1236 32.305 67.9272 25.1456 67.9272 25.1456C67.9272 15.4817 53.2564 7.78363 35 7.78363C16.7436 7.78363 1.94444 15.6197 1.94444 25.2836C1.94444 25.2836 1.75 33.7692 1.75 39.7464C1.75 45.7236 2.065 49.7681 2.065 49.7681C2.275 52.0761 3.05861 53.7659 5.04583 56.0097C5.84306 56.912 7.21389 57.7422 8.14917 58.0534C9.0825 58.3645 11.8242 57.122 11.8242 57.122L35 48.6189L43.855 61.9014C43.855 61.9014 44.8389 63.6397 46.3225 64.3456C47.8061 65.0533 49.6747 64.3164 51.3819 63.7992C61.3375 60.7872 67.1922 56.0603 68.1372 51.2361C68.3667 50.0636 68.5572 45.0956 68.3472 38.9084Z" fill="#FFAC33"/>
<path d="M35 7.78363C16.7436 7.78363 1.94444 15.6197 1.94444 25.2836C1.94444 28.9878 4.13194 32.4178 7.84194 35.247L35 25.2836L45.9919 41.7725C58.8369 39.3711 68.0556 32.9039 68.0556 25.2836C68.0556 15.6197 53.2564 7.78363 35 7.78363Z" fill="#F4900C"/>
<path d="M35 7.78363C17.8169 7.78363 3.88889 15.1842 3.88889 24.3114C3.88889 28.0875 6.3 31.5584 10.3133 34.3409L35 25.2836L44.8039 39.9895C57.1764 37.8059 66.1111 31.6167 66.1111 24.3114C66.1111 15.1842 52.1831 7.78363 35 7.78363Z" fill="#994500"/>
<path d="M35 7.78363C18.8281 7.78363 5.71861 14.7486 5.71861 23.3392C5.71861 27.1989 8.38056 30.7222 12.7614 33.4425L35 25.2836L43.6158 38.2084C55.5819 36.2522 64.2814 30.3353 64.2814 23.3392C64.2814 14.7486 51.1719 7.78363 35 7.78363Z" fill="#662113"/>
<path d="M45.1694 44.4792C43.9211 42.5036 35 28.2081 35 28.2081C35 28.2081 14.0194 36.0072 9.93028 37.4753C7.99944 38.1675 8.45639 43.6683 8.56722 47.775C8.77722 55.6403 9.51028 55.5139 11.6083 54.5806C16.3275 52.4845 35 45.7197 35 45.7197C35 45.7197 42.5464 57.0986 44.6444 60.0347C45.4106 61.1081 46.0775 62.4595 46.2175 55.3272C46.2992 51.2206 46.4275 46.4722 45.1694 44.4792Z" fill="#662113"/>
<path d="M35.2178 31.3328C35.2178 31.3328 27.6558 32.9136 27.6558 39.933C27.6558 47.2072 34.9981 44.2322 34.9981 44.2322C34.9981 44.2322 39.3672 49.7603 40.5183 43.54C41.6306 37.5219 35.2178 31.3328 35.2178 31.3328Z" fill="#FFAC33"/>
<path d="M34.9961 35.8439C34.9961 35.8439 31.535 36.3592 31.535 39.62C31.535 42.9975 34.8911 41.8231 34.8911 41.8231C34.8911 41.8231 37.2031 44.3353 37.6172 41.1931C38.0294 38.0781 34.9961 35.8439 34.9961 35.8439ZM51.6717 61.9617C51.5169 61.9615 51.3644 61.9243 51.2269 61.8533C51.0893 61.7823 50.9707 61.6794 50.881 61.5533C50.7912 61.4272 50.7328 61.2815 50.7107 61.1283C50.6886 60.9751 50.7034 60.8189 50.7539 60.6725C51.6794 57.9872 51.0825 46.8922 50.4058 43.6159C50.3535 43.3634 50.4036 43.1006 50.5451 42.8851C50.6866 42.6696 50.9079 42.5191 51.1603 42.4667C51.2854 42.4394 51.4146 42.4374 51.5405 42.4608C51.6664 42.4841 51.7863 42.5323 51.8933 42.6025C52.0003 42.6728 52.0923 42.7637 52.1637 42.8699C52.2352 42.9761 52.2847 43.0955 52.3094 43.2211C52.8908 46.0309 53.7561 57.9309 52.5933 61.3084C52.5269 61.4997 52.4024 61.6655 52.2371 61.7826C52.0719 61.8998 51.8742 61.9624 51.6717 61.9617ZM4.89417 53.7814C4.66432 53.7814 4.44191 53.6999 4.26642 53.5515C4.09093 53.4031 3.97371 53.1972 3.93556 52.9706C3.29778 49.1575 3.5875 39.025 4.26028 35.7739C4.28414 35.6469 4.33307 35.526 4.40422 35.4181C4.47536 35.3103 4.56729 35.2177 4.67463 35.1458C4.78197 35.0738 4.90257 35.024 5.02938 34.9993C5.15618 34.9745 5.28666 34.9753 5.41317 35.0015C5.53969 35.0277 5.6597 35.0789 5.7662 35.1521C5.87271 35.2252 5.96356 35.3189 6.03346 35.4275C6.10335 35.5362 6.15089 35.6577 6.17328 35.7849C6.19568 35.9122 6.19248 36.0426 6.16389 36.1686C5.53389 39.2117 5.25389 49.0759 5.85278 52.6478C5.87624 52.7872 5.86903 52.93 5.83167 53.0663C5.7943 53.2025 5.72767 53.3291 5.63642 53.437C5.54517 53.5449 5.43149 53.6316 5.3033 53.6911C5.17511 53.7506 5.03549 53.7814 4.89417 53.7814ZM59.6419 58.3956C59.487 58.3957 59.3343 58.3587 59.1965 58.2878C59.0587 58.2169 58.9399 58.1141 58.8499 57.988C58.7599 57.8619 58.7013 57.716 58.6791 57.5627C58.6569 57.4093 58.6717 57.2529 58.7222 57.1064C59.6497 54.4211 59.0528 43.3261 58.3761 40.0497C58.3238 39.7973 58.3739 39.5344 58.5154 39.319C58.6569 39.1035 58.8781 38.953 59.1306 38.9006C59.383 38.8483 59.6458 38.8984 59.8613 39.0399C60.0768 39.1813 60.2273 39.4026 60.2797 39.655C60.8611 42.4667 61.7264 54.3686 60.5617 57.7422C60.4953 57.9333 60.3711 58.0989 60.2063 58.216C60.0414 58.3331 59.8442 58.3958 59.6419 58.3956ZM65.8311 52.9434C65.6868 52.9439 65.5442 52.9123 65.4136 52.8509C65.283 52.7895 65.1677 52.6997 65.0761 52.5882C64.9845 52.4767 64.9189 52.3462 64.884 52.2062C64.8491 52.0661 64.8459 51.9201 64.8744 51.7786C65.5589 48.3603 65.3975 38.3522 64.7714 35.3286C64.7191 35.0762 64.7692 34.8133 64.9107 34.5978C65.0521 34.3823 65.2734 34.2319 65.5258 34.1795C65.7783 34.1293 66.0404 34.1806 66.2555 34.3221C66.4705 34.4637 66.6212 34.6841 66.675 34.9359C67.3458 38.1772 67.515 48.4984 66.7819 52.1617C66.738 52.3817 66.6193 52.5797 66.446 52.7222C66.2727 52.8646 66.0554 52.9428 65.8311 52.9434Z" fill="#F4900C"/>
<path d="M12.3958 31.1111C12.1754 31.1113 11.9615 31.0366 11.7892 30.8992C8.27361 28.0914 6.685 25.132 7.06611 22.1025C7.81861 16.1156 16.1 12.3161 16.4519 12.1586C16.569 12.101 16.6964 12.0674 16.8266 12.0601C16.9569 12.0527 17.0873 12.0716 17.2101 12.1156C17.3329 12.1597 17.4455 12.228 17.5414 12.3166C17.6372 12.4051 17.7142 12.512 17.7679 12.6309C17.8215 12.7498 17.8507 12.8783 17.8537 13.0087C17.8566 13.1392 17.8333 13.2689 17.7851 13.3901C17.7368 13.5113 17.6647 13.6216 17.573 13.7143C17.4812 13.8071 17.3718 13.8804 17.2511 13.93C17.1733 13.965 9.6075 17.4417 8.99306 22.3475C8.70333 24.6575 10.0528 27.0239 13.0006 29.3786C13.1581 29.5042 13.2728 29.6757 13.3287 29.8693C13.3846 30.0629 13.3789 30.269 13.3125 30.4593C13.2461 30.6495 13.1222 30.8145 12.958 30.9312C12.7938 31.048 12.5973 31.1109 12.3958 31.1111ZM51.6094 34.3525C51.3756 34.3506 51.1503 34.2646 50.9746 34.1103C50.7988 33.956 50.6845 33.7437 50.6524 33.512C50.6204 33.2804 50.6727 33.0449 50.7998 32.8487C50.927 32.6524 51.1205 32.5085 51.345 32.4431C51.4325 32.4197 60.0347 29.927 61.2694 24.1033C62.4692 18.4547 53.5656 14.3772 53.4761 14.3364C53.3581 14.2851 53.2514 14.2109 53.1623 14.118C53.0732 14.0252 53.0034 13.9156 52.9569 13.7956C52.9105 13.6755 52.8883 13.5475 52.8918 13.4188C52.8952 13.2902 52.9241 13.1635 52.9769 13.0461C53.0297 12.9287 53.1052 12.823 53.1992 12.735C53.2931 12.6471 53.4036 12.5787 53.5242 12.5337C53.6448 12.4888 53.7731 12.4682 53.9017 12.4733C54.0303 12.4783 54.1566 12.5088 54.2733 12.5631C54.7011 12.7556 64.6917 17.3425 63.1711 24.5097C61.6875 31.4864 52.2686 34.2047 51.87 34.3175C51.7851 34.3409 51.6975 34.3527 51.6094 34.3525ZM31.3094 23.0845L31.4378 23.0903C31.8128 23.0888 32.1728 22.9429 32.443 22.683C32.7133 22.423 32.873 22.0689 32.889 21.6943C32.9051 21.3196 32.7761 20.9532 32.5291 20.6711C32.282 20.389 31.9357 20.2129 31.5622 20.1795L27.9261 19.8645L29.3786 14.6689C32.83 13.8581 34.1192 12.3045 34.3078 12.0517C34.5323 11.7488 34.629 11.3698 34.577 10.9964C34.525 10.6229 34.3285 10.2848 34.0297 10.0547C33.7269 9.82298 33.3465 9.71671 32.9674 9.75799C32.5884 9.79926 32.2397 9.98491 31.9939 10.2764C31.9744 10.2997 29.8861 12.6836 22.7869 12.1683C22.4039 12.1453 22.0272 12.2741 21.7385 12.527C21.4498 12.7798 21.2724 13.1363 21.2447 13.519C21.2171 13.9018 21.3415 14.28 21.5908 14.5717C21.8402 14.8634 22.1945 15.045 22.5769 15.0772C23.3418 15.133 24.0625 15.1602 24.7392 15.1589C25.2642 15.1589 25.7542 15.1395 26.2267 15.1103L24.9686 19.6078L21.2742 19.287C21.0829 19.2677 20.8898 19.287 20.7061 19.3437C20.5225 19.4003 20.352 19.4932 20.2049 19.6168C20.0577 19.7404 19.9368 19.8923 19.8493 20.0634C19.7617 20.2345 19.7094 20.4214 19.6953 20.6131C19.6619 20.9983 19.7828 21.381 20.0314 21.6771C20.2801 21.9731 20.6362 22.1583 21.0214 22.192L22.9036 22.3553L16.1136 27.6967C15.9622 27.8146 15.8356 27.9614 15.7412 28.1285C15.6469 28.2956 15.5865 28.4797 15.5638 28.6703C15.541 28.8609 15.5562 29.0541 15.6085 29.2387C15.6608 29.4234 15.7492 29.5958 15.8686 29.7461C16.108 30.0498 16.4581 30.246 16.842 30.2916C17.226 30.3371 17.6123 30.2284 17.9161 29.9892L23.2342 25.8067L22.0519 30.0358L25.4256 28.7972L26.4153 25.2603L27.8483 27.9106L30.6153 26.8956L28.42 22.8375L31.3094 23.0845ZM46.1339 35.9625C46.2706 36.0968 46.4324 36.2027 46.6102 36.2742C46.788 36.3456 46.9781 36.3812 47.1697 36.3788C47.3613 36.3765 47.5505 36.3363 47.7265 36.2605C47.9024 36.1847 48.0617 36.0748 48.195 35.9372C48.329 35.8003 48.4347 35.6383 48.506 35.4604C48.5774 35.2826 48.613 35.0925 48.6108 34.9009C48.6087 34.7093 48.5688 34.52 48.4934 34.3438C48.4181 34.1677 48.3087 34.0081 48.1717 33.8742C45.1306 30.907 44.6425 24.43 44.6367 24.3639C44.6163 24.1399 44.5445 23.9236 44.4267 23.732C46.5092 18.097 46.8592 12.7536 46.8825 12.3608C46.8935 12.1696 46.8668 11.978 46.8038 11.7971C46.7407 11.6162 46.6427 11.4494 46.5152 11.3064C46.3877 11.1634 46.2333 11.0469 46.0608 10.9636C45.8882 10.8803 45.701 10.8318 45.5097 10.8208C45.3182 10.808 45.126 10.8334 44.9445 10.8956C44.7629 10.9578 44.5955 11.0556 44.4521 11.1832C44.3088 11.3108 44.1923 11.4657 44.1094 11.6389C44.0266 11.812 43.9791 12 43.9697 12.1917C43.9639 12.322 43.2503 23.1389 37.8681 29.5847L39.5442 32.1008C40.607 30.9237 41.5381 29.6341 42.3208 28.2547C42.9003 30.7281 44.0125 33.8917 46.1339 35.9625Z" fill="#994500"/>
<path d="M51.8603 19.1372C51.6498 18.8129 51.3191 18.5855 50.941 18.505C50.5629 18.4244 50.1683 18.4972 49.8439 18.7075L46.8456 20.6519C46.5323 20.8672 46.3154 21.1962 46.2411 21.5689C46.1668 21.9417 46.241 22.3287 46.4478 22.6476C46.6547 22.9664 46.9778 23.192 47.3485 23.2761C47.7191 23.3603 48.108 23.2964 48.4322 23.098L51.4306 21.1536C51.7548 20.9431 51.9822 20.6125 52.0628 20.2344C52.1434 19.8563 52.0705 19.4616 51.8603 19.1372ZM38.7314 21.8361C38.8643 21.9749 39.0233 22.0862 39.1993 22.1633C39.3753 22.2405 39.5648 22.2822 39.7569 22.2859C39.9491 22.2896 40.1401 22.2552 40.3189 22.1849C40.4977 22.1145 40.6609 22.0095 40.799 21.8759C40.9371 21.7422 41.0475 21.5826 41.1237 21.4062C41.1999 21.2298 41.2405 21.04 41.2432 20.8479C41.2458 20.6557 41.2105 20.4649 41.1391 20.2865C41.0678 20.108 40.9619 19.9454 40.8275 19.808L38.3172 17.2161C38.0483 16.9379 37.6798 16.7779 37.2929 16.7713C36.906 16.7648 36.5324 16.9122 36.2542 17.1811C35.9759 17.45 35.816 17.8185 35.8094 18.2054C35.8028 18.5923 35.9502 18.9659 36.2192 19.2442L38.7314 21.8361Z" fill="#994500"/>
</svg>
